/* XPM */
static char * C:\Users\mathi\Desktop\3_xpm[] = {
"48 48 6 1",
" 	c #FF00FF",
".	c #000000",
"+	c #A3A3A3",
"@	c #D5D3D3",
"#	c #636363",
"$	c #313131",
"                                                ",
"                                                ",
"                                                ",
"                                                ",
"                                                ",
"                                                ",
"                                                ",
"                                                ",
"                     .........                  ",
"                .................               ",
"            .........++@@@@@++....              ",
"           .....+@@@@@@@@@@@@@@@+..             ",
"          ..#++@@@@@@@@@@@@@@@@@@@..            ",
"          ..++...+@@@@@@@@@@@@...++..           ",
"         ..++.$...+++@@@@@@++...$.+..           ",
"         ..+.$.....++++@@@++.......+..          ",
"        ..++.$.....+++++++++.....$.+..          ",
"        ..+.$......+++++++++.....$.+..          ",
"        ..@.$......++++@@@++.....$.+..          ",
"       ..+@.$......++@@@@@@+.....$.+..          ",
"       ..@@.$......+@@@@@@@@+..$$.++..          ",
"       ..@@.$....$.+@@@@@@@@@+...++#..          ",
"       ..@@..$....+@@@+...+@@@@+..#+..          ",
"       ..@@+.$$.$.+@+.......+@@@@+++..          ",
"       ..@@+#.$$.+@+..$......+@@@@@+..          ",
"       ..@@.##..+@@.$.........@@@@@@..          ",
"       ..@@@..++@@+.$.........@@@@@@..          ",
"       ..+@@@@@@@@.$..........@@@@@@..          ",
"        ..+@@@@@@@.$..........@@@@@@+..         ",
"        ..+@@@@@@@.$$.......$.@@@@@@+..         ",
"        ..+@@@@@@@..$$.......+@@@@@++..         ",
"       ...++@@@@@@@..$$$.$$..@@@@@+++..         ",
"       ..+.++++@@@@+........+@@@+++.++..        ",
"      ..@+.++++++.@@@@@@@@@@@@.+++.#+@..        ",
"      ..@+#.++++++..@@@@@@@@..+++..++@..        ",
"     ..@@++#..+++++#........#+++..##+@..        ",
"     ..@@++##..#++++++####++++#....###..        ",
"     ..+++#......##########...... ......        ",
"     ...+#.....................     ...         ",
"      .....     ...........                     ",
"       ...                                      ",
"                                                ",
"                                                ",
"                                                ",
"                                                ",
"                                                ",
"                                                ",
"                                                "};
