/* XPM */
static char * C:\Users\mathi\Documents\color_xpm[] = {
"32 32 15 1",
" 	c #37FF00",
".	c #FF004C",
"+	c #2900FF",
"@	c #FF6000",
"#	c #E300FF",
"$	c #FFFF00",
"%	c #FF0000",
"&	c #00FFC1",
"*	c #005AFF",
"=	c #00FF00",
"-	c #00ACFF",
";	c #FF00CF",
">	c #FF5300",
",	c #713A6A",
"'	c #00FF91",
" .+@#$%&*=@-;>+, .+@#$%&*=@-;>,'",
" .+@#$%&*=@-;>+, .+@#$%&*=@-;>,'",
" .+@#$%&*=@-;>+, .+@#$%&*=@-;>,'",
" .+@#$%&*=@-;>+, .+@#$%&*=@-;>,'",
" .+@#$%&*=@-;>+, .+@#$%&*=@-;>,'",
" .+@#$%&*=@-;>+, .+@#$%&*=@-;>,'",
" .+@#$%&*=@-;>+, .+@#$%&*=@-;>,'",
" .+@#$%&*=@-;>+, .+@#$%&*=@-;>,'",
" .+@#$%&*=@-;>+, .+@#$%&*=@-;>,'",
" .+@#$%&*=@-;>+, .+@#$%&*=@-;>,'",
" .+@#$%&*=@-;>+, .+@#$%&*=@-;>,'",
" .+@#$%&*=@-;>+, .+@#$%&*=@-;>,'",
" .+@#$%&*=@-;>+, .+@#$%&*=@-;>,'",
" .+@#$%&*=@-;>+, .+@#$%&*=@-;>,'",
" .+@#$%&*=@-;>+, .+@#$%&*=@-;>,'",
" .+@#$%&*=@-;>+, .+@#$%&*=@-;>,'",
" .+@#$%&*=@-;>+, .+@#$%&*=@-;>,'",
" .+@#$%&*=@-;>+, .+@#$%&*=@-;>,'",
" .+@#$%&*=@-;>+, .+@#$%&*=@-;>,'",
" .+@#$%&*=@-;>+, .+@#$%&*=@-;>,'",
" .+@#$%&*=@-;>+, .+@#$%&*=@-;>,'",
" .+@#$%&*=@-;>+, .+@#$%&*=@-;>,'",
" .+@#$%&*=@-;>+, .+@#$%&*=@-;>,'",
" .+@#$%&*=@-;>+, .+@#$%&*=@-;>,'",
" .+@#$%&*=@-;>+, .+@#$%&*=@-;>,'",
" .+@#$%&*=@-;>+, .+@#$%&*=@-;>,'",
" .+@#$%&*=@-;>+, .+@#$%&*=@-;>,'",
" .+@#$%&*=@-;>+, .+@#$%&*=@-;>,'",
" .+@#$%&*=@-;>+, .+@#$%&*=@-;>,'",
" .+@#$%&*=@-;>+, .+@#$%&*=@-;>,'",
" .+@#$%&*=@-;>+, .+@#$%&*=@-;>,'",
" .+@#$%&*=@-;>+, .+@#$%&*=@-;>,'"};
