/* XPM */
static char * C:\Users\mathi\Desktop\dark_oak_log_xpm[] = {
"32 32 5 1",
" 	c #39271D",
".	c #412E22",
"+	c #3E2A20",
"@	c #31221A",
"#	c #2B1D16",
"  ..+.@ +..+@# +...@++++++@ +.++",
"  +.++@ ++.+@#@..++@+++ + @ +..+",
"@ +.+ @ ++++@#@.+.+@+++ +@# +..+",
"@  ++ @++.+ @#@.+..@     @# +..+",
"@   + @+..+ @#@..++# ++  @# +..+",
"@ + +@@+..+@##@+..@#+..  @#@+..+",
"@ +++@@ ..+ ##  ++##...+ @#@++.+",
"@+++ @  +.+ @#    #@...+ @#@++++",
" +++ @  +.. @#    # ...+ @## +++",
" +.+ @ +...  # ++ @ ..+++@## +++",
" ..+   +...+ #+++ @ +..++ @# +++",
" .++   +...+ @++++@ ...++ @#  ++",
" +.++   ...+ @++.+@@..+++ @#    ",
" ..++ @ .+.+ @+..+ @ ++++ @#+   ",
" ..+. @ .+++  +.+. @ ++++  #+ + ",
" ..+. @ ++++  ++..+  ++++  #+ ++",
"+..+.  @+.+.  +...+   ++++ @  ++",
"+..+.  @ ...  +..++ @    + @ +.+",
"++.+.+ @ +.+  +.++. @@@ ++ @ +..",
"+ .+.+ @ ++ + +.+..+@@ ++++@ .+.",
"+ .+++ @@   + +.+.++@ +++++@ ..+",
"+ .+++ @  +  @++.++.@ ++.++# ...",
"+ +++  #  ++ @ +....@ ++.+@#+...",
"+@ ++ @# +++ @ +...+@ +..+##+...",
"+@ ++ @# +..+@ ++..+@ +..+#@ ...",
"+@@++@## ...+@ +.++ @++..+#@ ...",
"+@ +. ## ...+@@+..+ @++..+#@ ..+",
"+ ++.+## ...+@@++. @@++.+ @@ +++",
"+ .+.+@# ...+@@+++ @@.+.+ @@@ ++",
"+ .+.. # ...+#@+++ @ .+++ @@  + ",
"+ .... @++..+#@++++@+.++ +@ +++ ",
"  .... @+.+. #@+..+@+.++ +@ +++ "};
