/* XPM */
static char * C:\Users\mathi\Desktop\dark_oak_planks_xpm[] = {
"32 32 11 1",
" 	c #4A3629",
".	c #4F392B",
"+	c #553F2E",
"@	c #3E2C23",
"#	c #463227",
"$	c #382722",
"%	c #443127",
"&	c #55402E",
"*	c #4F3B2B",
"=	c #463427",
"-	c #4A3529",
"    . ....++.+..+@.++.    ......",
"          ##    +@+             ",
" ...++.  #####  .@+.    ####### ",
"  ....     ##  .+@+...    ####  ",
" .......####### +@..   ######## ",
"   ....   ####  .$...   #####   ",
".................$..............",
"@@@@@@@@@@@@@@@@$$$@@@@@@@@@@@@@",
"      .....++%.++..+...... .    ",
"#######     +%+.   ######       ",
"####  ...++.+%+..    ###      ##",
"#########  ..%+.....    ... .   ",
"######  ..  .%..  #####      ###",
"#######     .@. #####         ##",
".............@..................",
"%@@@@@@@@$$$$$$@@@@@%%%%%%%%%%%%",
"&&&&** *  **&**&&%&**    * *****",
"     =======    &%**   ======   ",
"* *** ====     *&%&      ===  * ",
"   ====    ** **&@&**    ====== ",
" *** ====       *@**    ====    ",
"  ======       **@**  ========  ",
"*****************@**************",
"$$$$$$$$@@@@@@@@@@@@@@@@@@@@@@@$",
"     * ****&&-*&&****&&*&****   ",
"=========   *-&*            ====",
"========== *&-&***      ========",
"==  ****&*&*&%&**&&*&**  =======",
"=====       &%**      ======    ",
"======     **%* ==========    ==",
"*************%******************",
"@@@@@@@@@$$$$@@@@%%%%%%%%%%@@@@@"};
