/* XPM */
static char * C:\Users\mathi\Desktop\deepslate_xpm[] = {
"32 32 4 1",
" 	c #484949",
".	c #4F5151",
"+	c #3E3E3E",
"@	c #363636",
" ...+@      +@  ....+  .... @@@+",
".....@+   +@@@   .. +       @+  ",
".....@   ... @+    +@+     +@  .",
".... +  .....+@+++++@@+  +@@+   ",
"     @  .... +@@++@@@+.....     ",
"   ++@       ++ ...@@ ...... ++ ",
"@@+@@++     +++ ... @ ...... @@+",
"..... +++++++@+  .. @+ ....  @ .",
"...... +    +@@+    @@+     @ ..",
"...... +     +@++  ++@@@+  +@ ..",
".....  @+    +++....+@+ ... +  .",
"       @+++++@+......+ ..... +  ",
"       +@@+@@+ ......+...... @+ ",
"+     ++    ++ .....  ...... +  ",
" @+... + ..  +       + .... +   ",
"+@ .... ....         +      @   ",
"++  ... ..... +     +++    +@+++",
"+@+   +  .... +@++++   @+    @++",
"@@@++@@       @@@@+    @  ... @@",
"@@+   @@      @++++   +@ ..... +",
"@+..... @+   ++    +++++  ....  ",
"+ ...... @@@+++     @@@++       ",
"@  ..... @+  @++    @+ ...     +",
"@        +   @@+++++@ .....   +@",
"@+       @  ++@@+++@+  .... +@@@",
"..+     +@++++ .... +       +@  ",
"...++++++@@@+ ......@+     ++ ..",
"... @+++@@@+  ...... @++++++ ...",
"..  @@     +   ....  +@@+++@ ...",
"    @+ ...          +@ ... +    ",
"   +@ .....        +@ ..... +   ",
"++@@@ ....   ++  ...@ ..... @+++"};
