/* XPM */
static char * C:\Users\mathi\Documents\door_xpm[] = {
"32 32 11 1",
" 	c #71443A",
".	c #452E29",
"+	c #643D35",
"@	c #50332D",
"#	c #633D34",
"$	c #291111",
"%	c #5D362F",
"&	c #71403A",
"*	c #59352D",
"=	c #000000",
"-	c #5E3A32",
"   ..    .   .+   ..   @@   #.. ",
"   ..    .   .#   ..  ..    ..  ",
"   ..   ..  #.    ..  ..   ..   ",
"   .#   ..  ..    ..  ..   ..   ",
"   .    .   ..    .   #.   #.   ",
"  #.    .   ..    .     .   .   ",
"  #.    .   ..   ..    #.   .   ",
"   .    .    .   ..     .   .   ",
"   .#   .#   .   ..     .   .#  ",
"   ..   .#   .#  #.     .   .#  ",
"   ..   ..   ..   .    ..   .#  ",
"   ..   ..   ..   .    ..   .   ",
"   ..   ..   ..   .#   .    .   ",
"   #.   ..   ..   ..  #.  $$$$$ ",
"    .   ..   #.   ..  ..  $$$$$ ",
"    .   ..   #.   #.  ..  $$$$$ ",
"    .   ..   #.    .  ..  $$$$$ ",
"    .   .#   ..    .# ..  $$$$$ ",
"    .   .#   ..    .# ..   ..%  ",
"   &.   .   ..     .# ..  *===  ",
"    .   .   #.     .# ..   ===  ",
"    .   .   #.     .   ..  #=*  ",
"    .   .#  ..    ..   ..  ..   ",
"    .   ..   ..   ..   ..  ..   ",
"    .#   .   .#  #.#   #.  ..   ",
"    .#   .#  .#  ..    #.  ..   ",
"    ..   .#  .#  ..    #.  ..   ",
"    .#  #.   .#  .     #.  #.   ",
"    .   ..   .#  #.    #.  ..   ",
"   ..   .    .#   .     .   ..  ",
"   ..   .#   .#   ..    .#  ..  ",
"   ..   .-   .#   ..    .#   .  "};
