/* XPM */
static char * C:\Users\mathi\Documents\east_xpm[] = {
"32 32 5 1",
"  c #734E37",
". c #664631",
"+ c #553C28",
"@ c #644530",
"# c #63442F",
"                                ",
"                                ",
"                                ",
"                                ",
"......          .....+++++++++++",
"++++++++++++++++++++++++++++++++",
"                          ...+. ",
"                             +  ",
"                             +  ",
"        ....                .+. ",
"   .. ....................++++..",
"                   .++++++++++..",
"              .+++++++++@@@@@@+.",
"          .++++++@@@@@@@@@@@@@+ ",
"      ..+++++@@@@@@@@@@@@@@@@@+ ",
".......+++@@@@@@@@@@@@@@@@@@@@+.",
"  ....++@@@@@@@@@@@@@@@@@@@@@@+.",
"     ++@@@@@@@@@@@@@@@@@@@@@@@+ ",
"  ...++############@@@@@@@@@@@+.",
"+++++++++++++++++++###########+.",
"++++++++++++++++++++++++++++++++",
"              ..++++++++++++++++",
"                                ",
"                                ",
"                                ",
"                                ",
"............  .    .            ",
"                                ",
"                                ",
"                                ",
"                                ",
"                                "
};
