/* XPM */
static char * C:\Users\mathi\Desktop\heart_xpm[] = {
"32 32 10 1",
" 	c #FF00FF",
".	c #0D417B",
"+	c #1CCED4",
"@	c #1CCED3",
"#	c #98F0EA",
"$	c #CFEDEA",
"%	c #1FB5D7",
"&	c #187AB9",
"*	c #153252",
"=	c #1B90C4",
"                                ",
"                                ",
"                                ",
"      .......      .......      ",
"     .+@@@++#.    .$$$$$$$.     ",
"    .@#+@++##%.  .%#$$$$$#+.    ",
"   .@@@#++###%&..&%##$$$#+++.   ",
"  .@@@@@$$$$$@&&&&@$$$$$+++++.  ",
"  .@@@@$#####$@&&@$#####$++++.  ",
"  .###$#%&&&%#$$$$#%%%%%#$###.  ",
"  .##%$#&&&&&%####%%%@@@%$%##.  ",
"  *#%%$=&&&&&&%##%%%@@@@@$%%#*  ",
"  *%%%#%%=&&&&&%%%%++++##$%%%*  ",
"  *%%%#%%%%=&&&&%%+++####$%%%*  ",
"  *&&&%#%%%%%=&&%++#####$#&&&*  ",
"  *&&&%&$%%%%%%=+######$+#&&&*  ",
"   *&&%&&$######%++$++$++#&&*   ",
"   *&&%&&&$####+%%$++$+++#&&*   ",
"    *&%%%%%$##++%%%+$##$$#&*    ",
"     *+@##@@$@@+%%%$#@@@@@*     ",
"      *&&&&%&#@@%%$+#%@@@*      ",
"       *&&&%&&#@%#++#%%@*       ",
"        *&&%&&&##+++#%%*        ",
"         *&%@@%%##$$#%*         ",
"          *&&&&&@@@@@*          ",
"           *&&&&%@@@*           ",
"            *&&&%%@*            ",
"             *&&%%*             ",
"              *&%*              ",
"               **               ",
"                                ",
"                                "};
