/* XPM */
static char * C:\Users\mathi\Desktop\jack_xpm[] = {
"32 32 7 1",
" 	c #EA5901",
".	c #FF7700",
"+	c #FF9111",
"@	c #FFE99D",
"#	c #F2D676",
"$	c #FFBB5F",
"%	c #C63B00",
"   ......    ......    ......   ",
".....++++. ...++++... .++++.....",
"....+++++....++++++....+++++....",
"...++++++...++++++++...++++++...",
"..++++++....++++++++....++++++..",
"..+++++@@..++++++++++..@@+++++..",
"..++++@##@++++++++++++@##@++++..",
"..+++.@$$@++++++++++++@$$@.+++..",
"..+++@#++#@++++++++++@#++#@+++..",
".++++#$..$##@++++++@##$..$#++++.",
".++++$+..+$$++++++++$$+..+$++++.",
".+++++...+++++++++++++++..+++++.",
".+++++..++++++++++++++++..+++++.",
"++++++..++++++++++++++++..++++++",
"++++++@@@++++++++++++++@@@++++++",
"+$+++@.@@+@@++++++++@@+@@.@+++$+",
"+$+$+.+@@.@.@++++++@.@.@@+.+$+$+",
"+++$++$#@@@$.++++++.$@@@#$++$+++",
"+++++..+###$++@@@@++$###+..+++++",
"+++@#...+$++++$##$++++$+...#@+++",
"++++.#....++++++++++++....#.++++",
"+++@#$...+++@+.@@.+@+++...$#@+++",
"+++$$+...+++$#@$$@#$+++...+$$+++",
".+++++....+++$$++$$+++....+++++.",
".+++++.....++++++++++.....+++++.",
"..+++....@@..++++++..@@....+++..",
"....... .+##@......@##+. .......",
"....... ..++########++.. .......",
" ......% ...++$$$$++... %...... ",
" ......% .............. %...... ",
"% .....%% ............ %%..... %",
"%%     %%%   ......   %%%     %%"};
