/* XPM */
static char * C:\Users\mathi\Desktop\oak_planks_xpm[] = {
"32 32 12 1",
" 	c #675237",
".	c #6D573B",
"+	c #755F3E",
"@	c #574431",
"#	c #614D35",
"$	c #4E3C2F",
"%	c #5F4B35",
"&	c #675337",
"*	c #6D593B",
"=	c #75613E",
"-	c #614F35",
";	c #675137",
"    ......    . ....++.+..+@.++.",
"                    ##    +@+   ",
"  #######  ...++.  #####  .@+.  ",
"    ####    ....     ##  .+@+...",
" ########  .......####### +@..  ",
"  #####      ....   ####  .$... ",
"...........................$....",
"@@@@@@@@@@@@@@@@@@@@@@@@@@$$$@@@",
"    .....++%.++..+...... .      ",
"#####     +%+.   ######       ##",
"##  ...++.+%+..    ###      ####",
"#######  ..%+.....    ... .   ##",
"####  ..  .%..  #####      #####",
"#####     .@. #####         ####",
"...........@....................",
"@@@@@@@$$$$$$@@@@@%%%%%%%%%%%%%@",
"&&&*&*****====**&*&&**=**==%=**&",
"&------&&&&&&&&-------&&&&=%**&&",
"&&&---&&*&*&***&----&&&&&*=%=&&&",
"&&&------&&&&----&&&&**&**=@=**&",
"&&----&&&&&***&----&&&&&&&*@**&&",
"--------&&&&------&&&&&&&**@**&&",
"***************************@****",
"@@@@@@@@@$$$$$$$$$@@@@@@@@@@@@@@",
"&&&*&****==;*==****==*=****&&&&&",
"-------&&&*;=*&&&&&&&&&&&&------",
"--------&*=;=***&&&&&&----------",
"&&****=*=*=%=**==*=**&&---------",
"---&&&&&&&=%**&&&&&&------&&&&--",
"----&&&&&**%*&----------&&&&----",
"***********%********************",
"@@@@@@@$$$$@@@@%%%%%%%%%%@@@@@@@"};
