/* XPM */
static char * C:\Users\mathi\Documents\south_xpm[] = {
"32 32 16 1",
"  c #1C150E",
". c #412E1E",
"+ c #3E2D1D",
"@ c #553C28",
"# c #6E4D33",
"$ c #895E43",
"% c #473321",
"& c #4A3623",
"* c #352816",
"= c #322614",
"- c #4C3726",
"; c #61442D",
"> c #2C2112",
", c #291F10",
"' c #443120",
") c #2F2413",
"                                ",
"....+......   ..................",
"@@@@@@@@@@@. @@@@@@@@@@@@@@@@@@@",
"@@@@@@@@@@@. @@@@@@@@@@@@@@@@@@@",
"###########@.###################",
"$$$$$$$$$$####$$$$$$$$$$$$$$$$$$",
"###$$$$###$#$$$$$$#$$$$$$$$#$$$$",
"$$$$$$$$$$$$@@$$$###$$$$$$$##$$$",
"############@@##################",
"###@@@%&&&@&&&@#################",
"@@@@@@@@@@@@&&&&&@@@@@##########",
"#############&@@###########@@@##",
"###@#########&&@#########@@@####",
"####&#####@@#*&@@#######@&&&&&&&",
"&&&***.%&&&&==*&&&&&&&&&&&******",
"&&&&&%.%&%&&&%-&&&&&&&&&&%&&&&&&",
"$$;@@;$$$$$$$$$$$$$$$#@$$$$$$$$$",
";;;$@;$;;;;;;;;;;;;;;@@;;;;;;;;;",
";;;;;;;;;;;;;;;;;;;;;@;;;;;;;;;;",
";;;;;;;;;;;;;;;;;;;;;;;;;;;;;;;;",
";;>;;;;;;;;;;;;;;;@@@....>>,+..@",
"@&@;;;;@&;;;;;;;;;;;;;;;;;;;;;@&",
"@%=%@@%%==@@@@;;;;;;;;;;;;;;;;;;",
"========%%%%%%%%%%%')========%%%",
"===================**===========",
"=====%%%%#######=##############%",
"########@@@@@@@@==@@@@%@%=@@@@@@",
"@@@@@@@@@@@@@@@@==%%%%@@@@@@@@@@",
"@@@@@@@@@@@@@@@'===''%@@@@@@@@@@",
"''.''%@%@@@@@@@@)''@@@@@@@@@@'''",
"@@@@@@@@@@@@@@@@'))'@@@@@@@@@@@@",
".................>>..........++."
};
