/* XPM */
static char * C:\Users\mathi\Documents\tre_xpm[] = {
"32 32 3 1",
" 	c #000000",
".	c #008550",
"+	c #018651",
"                                ",
"                                ",
"                                ",
"                                ",
"                                ",
"                                ",
"................................",
"................................",
"................................",
"................................",
"................................",
"................................",
"................................",
"................................",
"................................",
"................................",
"................................",
"................................",
"................................",
"................................",
"................................",
"................................",
"................................",
"................................",
"................................",
"................................",
"+++++...........................",
"+++++...........................",
"+++++...........................",
"+++++...........................",
"+++++...........................",
"+++++..........................."};
