/* XPM */
static char * C:\Users\mathi\Documents\tree_xpm[] = {
"32 32 154 2",
"  	c #05520E",
". 	c #00470E",
"+ 	c #034E15",
"@ 	c #08521D",
"# 	c #004914",
"$ 	c #03511D",
"% 	c #005419",
"& 	c #005518",
"* 	c #00571B",
"= 	c #00561A",
"- 	c #00551B",
"; 	c #00541A",
"> 	c #035B1F",
", 	c #096127",
"' 	c #0D652B",
") 	c #0E8045",
"! 	c #058346",
"~ 	c #00854A",
"{ 	c #00864B",
"] 	c #01864D",
"^ 	c #01844E",
"/ 	c #00834D",
"( 	c #02824F",
"_ 	c #044F14",
": 	c #044E19",
"< 	c #024F1B",
"[ 	c #01511E",
"} 	c #00531C",
"| 	c #00521B",
"1 	c #00541B",
"2 	c #00551C",
"3 	c #00581F",
"4 	c #00581E",
"5 	c #005D23",
"6 	c #006830",
"7 	c #006F37",
"8 	c #027846",
"9 	c #087E4C",
"0 	c #088452",
"a 	c #0A8654",
"b 	c #02864D",
"c 	c #01864F",
"d 	c #018450",
"e 	c #00834F",
"f 	c #065116",
"g 	c #06501B",
"h 	c #05521E",
"i 	c #035320",
"j 	c #00551E",
"k 	c #00561F",
"l 	c #005A21",
"m 	c #045F26",
"n 	c #06632A",
"o 	c #0D6A31",
"p 	c #0D7238",
"q 	c #12773D",
"r 	c #0E7E46",
"s 	c #108048",
"t 	c #0C8250",
"u 	c #0B814F",
"v 	c #078351",
"w 	c #068250",
"x 	c #00541F",
"y 	c #005720",
"z 	c #005821",
"A 	c #005A22",
"B 	c #005B23",
"C 	c #005F26",
"D 	c #006229",
"E 	c #00672E",
"F 	c #006D34",
"G 	c #04753D",
"H 	c #097A42",
"I 	c #0C7F46",
"J 	c #0E8148",
"K 	c #0A834D",
"L 	c #038353",
"M 	c #008452",
"N 	c #018553",
"O 	c #018651",
"P 	c #02602B",
"Q 	c #01642D",
"R 	c #02652E",
"S 	c #036830",
"T 	c #077037",
"U 	c #0D763D",
"V 	c #107D44",
"W 	c #138047",
"X 	c #11824A",
"Y 	c #10834A",
"Z 	c #08814B",
"` 	c #048454",
" .	c #058555",
"..	c #028654",
"+.	c #077D49",
"@.	c #068045",
"#.	c #088247",
"$.	c #078545",
"%.	c #088646",
"&.	c #088949",
"*.	c #098A4A",
"=.	c #098851",
"-.	c #07864F",
";.	c #05854C",
">.	c #03834A",
",.	c #02814A",
"'.	c #04834C",
").	c #028551",
"!.	c #028655",
"~.	c #0C824E",
"{.	c #0B854A",
"].	c #0C864B",
"^.	c #0B8949",
"/.	c #078848",
"(.	c #058646",
"_.	c #06864D",
":.	c #06854E",
"<.	c #00834E",
"[.	c #008549",
"}.	c #00864A",
"|.	c #008846",
"1.	c #008849",
"2.	c #00894A",
"3.	c #02894F",
"4.	c #02874E",
"5.	c #028750",
"6.	c #008651",
"7.	c #018754",
"8.	c #038350",
"9.	c #028752",
"0.	c #00894D",
"a.	c #008C4A",
"b.	c #01884E",
"c.	c #008653",
"d.	c #01874C",
"e.	c #00874D",
"f.	c #00874C",
"g.	c #00874F",
"h.	c #03824F",
"i.	c #018554",
"j.	c #00864C",
"k.	c #00854E",
"l.	c #00864E",
"m.	c #048451",
"n.	c #007F4C",
"o.	c #008550",
"p.	c #01814E",
"q.	c #048A57",
"r.	c #038652",
"s.	c #048753",
"t.	c #078653",
"u.	c #048856",
"v.	c #088C5A",
"w.	c #038755",
"  . + @ # $ $ % % % % & & * = - ; * > , ' ) ) ! ! ~ { ] ] ^ / ( ",
"_ : : < < [ [ } | 1 1 2 3 4 5 6 7 8 9 0 a b b ] ] c c c c d d e ",
"f g g h h i i j k l m n o p q r s t u v w b b ] ] c c c c d d d ",
"x y z A B C D E F G H I J K K v v L L M N O O c c c c c c d d d ",
"P Q R S S T U V W X X Y J Z Z w w `  .....O O c c c c c c d d d ",
"+.@.#.$.%.&.*.=.-.;.>.,.'.).).....!.!.....O O c c c c c c d d d ",
"~.{.].^.^./.(.'.'.;._.:.:.).).....!.!.....O O c c c c c c d d d ",
"<.[.}.|.|.1.2.3.3.] 4.5.5.6.6.7.7.........O O c c c c c c d d 8.",
"9.0.0.a.a.2.2.b.b.] ] c c 6.6.c.c.N N N N O O c c c c c c d d 8.",
"!.5.5.d.d.e.e.f.f.c c g.g.6.6.O O N N O O d d d d d d d d 8.( h.",
"i.c c d.d.j.j.f.f.c k.l.l.6.6.O O N N O O d d d d d d d d m.( n.",
"i.c c ] ] j.j.j.j.k.k.k.k.o.o.o.o.o.o.o.o.d d d d d d 8.8.( ( 7.",
"i.c c ] ] j.j.j.j.k.k.k.k.o.o.o.o.o.o.o.o.d d d d d d 8.( p.8.q.",
"i.c c c c l.l.l.l.k.k.k.k.o.o.o.o.d d d d d d d d d d ).).).).h.",
"i.c c c c l.l.l.l.k.k.k.k.o.o.o.o.d d d d d d d d d d d d r.s.t.",
"N c c c c l.l.l.l.k.k.k.k.o.o.o.o.d d d d d d d d d d d d N u.v.",
"N c c c c l.l.l.l.k.k.k.k.o.o.o.o.d d d d d d d d d d d ).w.w.w.",
"N O O c c k.k.o.o.o.o.o.o.o.o.o.o.o.o.o.o.o.o.o.o.o.o.o.O O 9.o.",
"N O O c c k.k.o.o.o.o.o.o.o.o.o.o.o.o.o.o.o.o.o.o.o.o.o.o.o.O o.",
"O O O c c k.k.o.o.o.o.o.o.o.o.o.o.o.o.o.o.o.o.o.o.o.o.o.o.o.o.o.",
"O O O c c k.k.o.o.o.o.o.o.o.o.o.o.o.o.o.o.o.o.o.o.o.o.o.o.o.o.o.",
"O O O O O o.o.o.o.o.o.o.o.o.o.o.o.o.o.o.o.o.o.o.o.o.o.o.o.o.o.o.",
"O O O O O o.o.o.o.o.o.o.o.o.o.o.o.o.o.o.o.o.o.o.o.o.o.o.o.o.o.o.",
"O O O O O o.o.o.o.o.o.o.o.o.o.o.o.o.o.o.o.o.o.o.o.o.o.o.o.o.o.o.",
"O O O O O o.o.o.o.o.o.o.o.o.o.o.o.o.o.o.o.o.o.o.o.o.o.o.o.o.o.o.",
"O O O O O o.o.o.o.o.o.o.o.o.o.o.o.o.o.o.o.o.o.o.o.o.o.o.o.o.o.o.",
"O O O O O o.o.o.o.o.o.o.o.o.o.o.o.o.o.o.o.o.o.o.o.o.o.o.o.o.o.o.",
"O O O O O o.o.o.o.o.o.o.o.o.o.o.o.o.o.o.o.o.o.o.o.o.o.o.o.o.o.o.",
"O O O O O o.o.o.o.o.o.o.o.o.o.o.o.o.o.o.o.o.o.o.o.o.o.o.o.o.o.o.",
"O O O O O o.o.o.o.o.o.o.o.o.o.o.o.o.o.o.o.o.o.o.o.o.o.o.o.o.o.o.",
"O O O O O o.o.o.o.o.o.o.o.o.o.o.o.o.o.o.o.o.o.o.o.o.o.o.o.o.o.o.",
"O O O O O o.o.o.o.o.o.o.o.o.o.o.o.o.o.o.o.o.o.o.o.o.o.o.o.o.o.o."};
