/* XPM */
static char * C:\Users\mathi\Documents\wall_xpm[] = {
"32 32 76 1",
"  c #71443A",
". c #6E4239",
"+ c #532E2B",
"@ c #381618",
"# c #4A2625",
"$ c #5D3A34",
"% c #683E36",
"& c #523330",
"* c #411F20",
"= c #411F1F",
"- c #613731",
"; c #6B4037",
"> c #35181B",
", c #3F1E20",
"' c #3C1B1D",
") c #653B35",
"! c #4F2927",
"~ c #674037",
"{ c #5D3531",
"] c #442222",
"^ c #5B332F",
"/ c #664139",
"( c #411700",
"_ c #4D2D2C",
": c #623F38",
"< c #443332",
"[ c #22262C",
"} c #1D1C23",
"| c #55302E",
"1 c #4C302F",
"2 c #2A2E33",
"3 c #1D3A42",
"4 c #232C32",
"5 c #6A3F37",
"6 c #1E2D32",
"7 c #364A50",
"8 c #575F61",
"9 c #62686B",
"0 c #3A4A4F",
"a c #442D2E",
"b c #493230",
"c c #012631",
"d c #404F55",
"e c #6B6B6C",
"f c #3B4D53",
"g c #052933",
"h c #444A4F",
"i c #46302F",
"j c #303135",
"k c #2C4147",
"l c #484F52",
"m c #16282F",
"n c #676869",
"o c #0A2731",
"p c #21363A",
"q c #1B262D",
"r c #253B42",
"s c #15262E",
"t c #251C22",
"u c #143139",
"v c #163137",
"w c #311519",
"x c #0E2F39",
"y c #2E272A",
"z c #132C33",
"A c #1A3137",
"B c #435156",
"C c #333E42",
"D c #2A1D21",
"E c #0D252E",
"F c #0F303A",
"G c #0B2B34",
"H c #1C343A",
"I c #2C1A1E",
"J c #454C50",
"K c #3A2B2D",
"  . .+@#$. %&*=-       +==+-   ;",
"   .-#>#$  .&,')      ;!==+-   ~",
"   .{]>+%. .$**%      %^==!-%  ;",
"   %{]>^    .!*%%     %!==]%%  /",
"   %{]'- .   !=^% %%  %^==+%%. ;",
"   .{]'-     !@!%     %^==-%%  ~",
"   %{]'-    .!@#-    %%!==)%%  ;",
"   %{#>-    .!=+- %   %+==)    /",
"%  %{]'-     *,+-     %+=(-    /",
"   %{]>{ .  .+@_-     %^==^    /",
"   .^]'- .  .!@+-     %+==%%%  ;",
"   ;+]=-     +*#{  %  %+==)    /",
"   %],+:     $#*+     %^=]%    ;",
"   :=,+% .  )<[},%.   %^=]%    /",
"   %='|%  .:12334_5 . %^==%%   /",
"   %=,|%  )_678904a). %%!=%    /",
"   )**&% %b[cdeefc4a%% %+=%  . /",
"   %=,+%%b4gceeeehh4+% %!=%    /",
"   %*'|{i6feeeeeeeee6+%.!'+%   ;",
"  %-=]_ajkeeeeeeeeeel2|-!>+-  .$",
" .%+'=_mkenegcogcoeeepq1*>+)  %|",
"  -!',_mrees}}}}}tseeus_*'_-  ;$",
"  -_,]|mveestw'@wtseexs_*'+-   )",
" .)+>#)4xeeeoy#@}seeezs_*'_-  %|",
"  -_>!%ysAeeBC[}4eeeAsD_*'_)  )_",
"  -+'!%#tEeeeeFGeeeHEt#+*'_). :1",
"  )!>!%{]IseeeeeeevsI|-|*>+)  :b",
"  )+'#-)+]tseeeeeAst={-|,'_-  %_",
";.-_'*|%)|*IEJGogED=_|||''+-. %_",
"{{{+@*+{{++#KKKKKK!!|+|+='!{{^^_",
"                                ",
"                                "
};
