/* XPM */
static char * C:\Users\mathi\Documents\west_xpm[] = {
"32 32 28 1",
"  c #61442D",
". c #473321",
"+ c #412E1E",
"@ c #553C28",
"# c #895E43",
"$ c #322514",
"% c #5D4739",
"& c #4B3A30",
"* c #674E3E",
"= c #281E10",
"- c #675F65",
"; c #3D3227",
"> c #503F33",
", c #73676B",
"' c #5E595F",
") c #6B6267",
"! c #7A6C6E",
"~ c #624F46",
"{ c #52443D",
"] c #453C35",
"^ c #66554F",
"/ c #574840",
"( c #4D3624",
"_ c #554236",
": c #251C0E",
"< c #2C2315",
"[ c #3D2C1C",
"} c #443323",
"   .++@+...@@@@@.+   @@   ...   ",
" ##@.. .@@@    @@.###  ###@@@@##",
"##@@.  .@@@@ @@@@. ######@#@####",
"@@@@.@.$+..+....+$  @@.@@@+++ @@",
"@@@@@@@.$@@.+....+$ @@.@@@@++@@.",
"@%@@@@@@@$.@.+...+$  @@.@@@@+++.",
".%@@@@@@@.$@.+....+$  @@@@@@@++ ",
"&*@@@@@@@@$.@.+...+$$  @@@@@@+++",
"&+ @@@@@@@.$..+.....$$ @@@@@@.++",
"&++ @@@@@@..$$@....++$  @@@@.+$+",
"@$+ @@@@@.@@$$@@...+$=$ @@@@..+$",
"$$$$+ @@@.@@..$$$===$=$  @@@@..+",
".++$+&@@@@.@@+$%$$$$+$$$@@@@@.@@",
"+@@.+- @@@+@@@+;@.+$$..+$@@@@@.@",
"+@@@>-+ @@@+@@@-;@.++$..+$@@@@.@",
"@+@@,-++ @@@++@,-;@.++..+$ @@@@@",
"@@+%,>+++ @@@+@,-'%..++..+$ @@@@",
"@@%),@.++ @@@@+%,''%.....+$$ @@@",
"@%,,%@@.++ @@@+@,-''>.++..+$$ @@",
"'!,~.@@@+++@@@@@---'',>+...+$ @@",
"';*%@@@@.+++ @@@&,&-'-,>+...+$@@",
"+$; @@@@@.+++ @@@'%{-',)>...+$ @",
".+;$ @@@@@.++.@@@',%]',%))>..+$ ",
".&$$ @% @@@.++.@@%',@;',>))>.++$",
".>+$$*^%*@@..++ @@,'%@;',>)))>+$",
"./>&;]! %*%@.+++ @,,-,,'',)>)))&",
">/>.&''%@ %%.+$+ @,,>@@@&'->.>))",
"..+>-&''@@@@@@+$+*,%@@.@@&''%..>",
"+&--&+&'$ ((+((+&-- ((((((&--_++",
"'-'''''';$.++++&'';.++++++$;'--&",
":::::::::::::<<<<<<<<<<<<<<<<<<<",
"[[[[[[[[[[[[[}}}}}}}}}}}}}}}}}}}"
};
