/* XPM */
static char * C:\Users\mathi\Desktop\empty_xpm[] = {
"32 32 6 1",
" 	c #FF00FF",
".	c #661A33",
"+	c #1F181A",
"@	c #342A2B",
"#	c #574A49",
"$	c #8E817D",
"                                ",
"                                ",
"                                ",
"                                ",
"                                ",
"                                ",
"                                ",
"                                ",
"        ......    ......        ",
"       .+++@@+.  .+@@+++.       ",
"      .++@###@+..+@###@++.      ",
"      .+@###$#@++@#$$$#@+.      ",
"     .++####$$#@@#$$$$$#++.     ",
"     .+@#########$$$$$$#@+.     ",
"     .+@##########$$$$##@+.     ",
"     .+@################@+.     ",
"      .+@###############+.      ",
"      .+@#$############@+.      ",
"       .+@#$##########@+.       ",
"        .+@#$########@+.        ",
"         .+@#$######@+.         ",
"          .+@######@+.          ",
"           .+@####@+.           ",
"            .+@##@+.            ",
"             .+@@+.             ",
"              .++.              ",
"               ..               ",
"                                ",
"                                ",
"                                ",
"                                ",
"                                "};
