/* XPM */
static char * C:\Users\mathi\Desktop\half_xpm[] = {
"32 32 7 1",
" 	c #FF00FF",
".	c #511533",
"+	c #701E36",
"@	c #9A2731",
"#	c #AB3035",
"$	c #C9413E",
"%	c #AC3035",
"                                ",
"                                ",
"                                ",
"                                ",
"                                ",
"                                ",
"                                ",
"                                ",
"                                ",
"        ......    ......        ",
"       .+@@@@@.  .@@@@@+.       ",
"      .+@@###@@..@@###@++.      ",
"      .@@@####@.@@##$$++@.      ",
"      .@@@###+..+##$$$+@@.      ",
"      .@@#@##.@@.%#$$#.@@.      ",
"      .@@@#+.+@@.%%%%%+.@.      ",
"      .+@@@.@@@@+.+%%%@...      ",
"       .+@#+@@@@@@.%+@@..       ",
"        .+@+@@@#@@.++@+.        ",
"         .+@$@####.@++.         ",
"          .+@$#+##.@+.          ",
"           .+@#++....           ",
"            .+@@@@..            ",
"             .+@@+.             ",
"              .++.              ",
"               ..               ",
"                                ",
"                                ",
"                                ",
"                                ",
"                                ",
"                                "};
