/* XPM */
static char * C:\Users\mathi\Desktop\heart_xpm[] = {
"32 32 6 1",
" 	c #FF00FF",
".	c #661A33",
"+	c #8E2631",
"@	c #C34032",
"#	c #D9533D",
"$	c #FF734F",
"                                ",
"                                ",
"                                ",
"                                ",
"                                ",
"                                ",
"                                ",
"                                ",
"                                ",
"        ......    ......        ",
"       .+@@@@@.  .@@@@@+.       ",
"      .+@@###@@..@@###@@+.      ",
"      .@@@####@@@@##$$#@@.      ",
"      .@@@#####@@##$$$#@@.      ",
"      .@@#@###@@@##$$##@@.      ",
"      .@@@#@@@@@@######@@.      ",
"      .+@@@@@@@@@#####@@+.      ",
"       .+@#@@@@@@@###@@+.       ",
"        .+@#@@@#@@##@@+.        ",
"         .+@$@#####@@+.         ",
"          .+@$####@@+.          ",
"           .+@###@@+.           ",
"            .+@@@@+.            ",
"             .+@@+.             ",
"              .++.              ",
"               ..               ",
"                                ",
"                                ",
"                                ",
"                                ",
"                                ",
"                                "};
