/* XPM */
static char * C:\Users\mathi\Desktop\gaper\8_xpm[] = {
"64 90 8 1",
"  c #FF00FF",
". c #080000",
"+ c #CF9C9B",
"@ c #E3C6C5",
"# c #FFFFFF",
"$ c #B97371",
"% c #830000",
"& c #B30000",
"                                                                ",
"                                                                ",
"                                                                ",
"                                                                ",
"                                                                ",
"                                                                ",
"                                                                ",
"                                                                ",
"                                                                ",
"                                                                ",
"                                                                ",
"                                                                ",
"                        ................                        ",
"                        ................                        ",
"                    ........................                    ",
"                    ........................                    ",
"                ........++++++++++++++++........                ",
"                ........++++++++++++++++........                ",
"              ......++@@@@@@@@@@@@@@@@@@@@++......              ",
"              ......++@@@@@@@@@@@@@@@@@@@@++......              ",
"            ....++@@@@@@@@@@@@@@@@@@@@@@@@@@@@++....            ",
"            ....++@@@@@@@@@@@@@@@@@@@@@@@@@@@@++....            ",
"          ....++@@@@@@@@@@@@@@@@@@@@@@@@@@@@@@@@++....          ",
"          ....++@@@@@@@@@@@@@@@@@@@@@@@@@@@@@@@@++....          ",
"        ....++@@@@@@@@@@@@@@@@@@@@@@@@@@@@@@@@@@@@++....        ",
"        ....++@@@@@@@@@@@@@@@@@@@@@@@@@@@@@@@@@@@@++....        ",
"        ....@@@@@@@@@@@@@@@@@@@@@@@@@@@@@@@@@@@@@@@@....        ",
"        ....@@@@@@@@@@@@@@@@@@@@@@@@@@@@@@@@@@@@@@@@....        ",
"      ....++@@@@@@@@@@@@@@@@@@@@@@@@@@@@@@@@@@@@@@@@++....      ",
"      ....++@@@@@@@@@@@@@@@@@@@@@@@@@@@@@@@@@@@@@@@@++....      ",
"      ....@@@@@@@@@@@@@@@@@@@@@@@@@@@@@@@@@@@@@@@@@@@@....      ",
"      ....@@@@@@@@@@@@@@@@@@@@@@@@@@@@@@@@@@@@@@@@@@@@....      ",
"    ....++@@@@@@@@@@@@@@@@@@@@@@@@@@@@@@@@@@@@@@@@@@@@++....    ",
"    ....++@@@@@@@@@@@@@@@@@@@@@@@@@@@@@@@@@@@@@@@@@@@@++....    ",
"    ....++@@@@........@@@@@@@@@@@@@@@@@@@@........@@@@++....    ",
"    ....++@@@@........@@@@@@@@@@@@@@@@@@@@........@@@@++....    ",
"    ....++@@..####......@@@@@@@@@@@@@@@@..####......@@++....    ",
"    ....++@@..####......@@@@@@@@@@@@@@@@..####......@@++....    ",
"    ....++++..####......@@@@@@@@@@@@@@@@..####......++++....    ",
"    ....++++..####......@@@@@@@@@@@@@@@@..####......++++....    ",
"    ....$$++............@@............@@............++$$....    ",
"    ....$$++............@@............@@............++$$....    ",
"      ....++............@@..########..@@............++....      ",
"      ....++............@@..########..@@............++....      ",
"      ....$$++........%%@@............@@%%........++$$....      ",
"      ....$$++........%%@@............@@%%........++$$....      ",
"        ....++%%%%%%%%&&@@++........++@@&&++%%%%%%++....        ",
"        ....++%%%%%%%%&&@@++........++@@&&++%%%%%%++....        ",
"        ....$$&&&&&&&&@@@@@@@@@@@@@@@@@@&&@@&&&&&&$$....        ",
"        ....$$&&&&&&&&@@@@@@@@@@@@@@@@@@&&@@&&&&&&$$....        ",
"          ....%%&&&&@@@@@@@@@@@@@@@@@@@@@@@@&&&&%%....          ",
"          ....%%&&&&@@@@@@@@@@@@@@@@@@@@@@@@&&&&%%....          ",
"            ....%%&&++@@@@@@@@@@@@@@@@@@@@++&&%%....            ",
"            ....%%&&++@@@@@@@@@@@@@@@@@@@@++&&%%....            ",
"              ......%%++@@@@@@@@@@@@@@@@++%%......              ",
"              ......%%++@@@@@@@@@@@@@@@@++%%......              ",
"                ........$$++++++++++++$$........                ",
"              ..........$$++++++++++++$$..........              ",
"              ....++........................++....              ",
"              ....++........................++....              ",
"              ....++@@....................$$++....              ",
"              ....++@@....................$$++....              ",
"                ........@@@@@@@@@@@@@@@@++......                ",
"                ........@@@@@@@@@@@@@@@@++......                ",
"                  ......@@@@++....++@@@@++....                  ",
"                  ......@@@@++....++@@@@++....                  ",
"                    ....++@@++....@@@@@@$$....                  ",
"                    ....++@@++....@@@@@@$$....                  ",
"                    ......$$$$..............                    ",
"                    ......$$$$..............                    ",
"                      ....................                      ",
"                      ....................                      ",
"                        ......                                  ",
"                        ......                                  ",
"                                                                ",
"                                                                ",
"                                                                ",
"                                                                ",
"                                                                ",
"                                                                ",
"                                                                ",
"                                                                ",
"                                                                ",
"                                                                ",
"                                                                ",
"                                                                ",
"                                                                ",
"                                                                ",
"                                                                ",
"                                                                "};
