/* XPM */
static char * \\wsl_localhost\Ubuntu\home\luxojr\project\cub3d\assets\penny\0_xpm[] = {
"32 32 5 1",
"  c #FF00FF",
". c #080000",
"+ c #9E712E",
"@ c #C68F3C",
"# c #775422",
"                                ",
"                                ",
"                                ",
"                                ",
"                                ",
"                                ",
"           ..........           ",
"           ..........           ",
"     ......................     ",
"   ........+@@..@@@@+........   ",
"   ........+@@..@@@@+........   ",
"  ...++@@@@+......++@@@@@++...  ",
"  ...++@@@@+......++@@@@@++...  ",
"...++@@@@@@.++@@@@@@@@@@@@@++...",
"...++@@@@@@.++@@@@@@@@@@@@@++...",
"...++@@@@@@+........@@@@@@@++...",
"...++@@@@@@+........@@@@@@@++...",
".....++@@@@@++..++@@@@@@@++.....",
"...##......++++++++++......##...",
"...##......++++++++++......##...",
"  ...##++++..........++++##...  ",
"  ...##++++..........++++##...  ",
"   ........#++++++++#........   ",
"   ........#++++++++#........   ",
"     ......................     ",
"     ......................     ",
"           ..........           ",
"                                ",
"                                ",
"                                ",
"                                ",
"                                "};
