/* XPM */
static char * \\wsl_localhost\Ubuntu\home\luxojr\project\cub3d\assets\penny\1_xpm[] = {
"32 32 7 1",
"  c #FF00FF",
". c #080000",
"+ c #FFFFFF",
"@ c #C68F3C",
"# c #9E712E",
"$ c #BFBFBF",
"% c #775422",
"                                ",
"                                ",
"                                ",
"                                ",
"          ...........           ",
"          ...........           ",
"     .....................      ",
"   .......++@@.@@@@##.......    ",
"   .......++@@.@@@@##.......    ",
" ....#$$++##.....##@@@@@##....  ",
" ....#$$++##.....##@@@@@##....  ",
"...##$++@@..##@@@@@@@@@@@@##....",
"...##$++@@..##@@@@@@@@@@@@##....",
"...$$+@@@@##.......@@@@@@@##....",
"...$$+@@@@##.......@@@@@@@##....",
".....#@@@@@@##.##@@@@@@@##......",
"...%%.....###########.....%%....",
"...%%.....###########.....%%....",
" ....%####...........###%%....  ",
" ....%####...........###%%....  ",
"   .......%%#######%%.......    ",
"   .......%%#######%%.......    ",
"     .....................      ",
"     .....................      ",
"          ...........           ",
"                                ",
"                                ",
"                                ",
"                                ",
"                                ",
"                                ",
"                                "};
