/* XPM */
static char * C:\Users\mathi\Documents\a_xpm[] = {
"22 30 27 1",
" 	c None",
".	c #232323",
"+	c #000000",
"@	c #050505",
"#	c #181818",
"$	c #141414",
"%	c #767676",
"&	c #666666",
"*	c #434343",
"=	c #1C1C1C",
"-	c #707070",
";	c #6A6A6A",
">	c #121212",
",	c #292929",
"'	c #2F2F2F",
")	c #828282",
"!	c #0D0D0D",
"~	c #6F6F6F",
"{	c #9A9A9A",
"]	c #383838",
"^	c #323232",
"/	c #363636",
"(	c #080808",
"_	c #8B8B8B",
":	c #4E4E4E",
"<	c #3F3F3F",
"[	c #848484",
"                      ",
"                      ",
"                      ",
"                      ",
"          .++@+@#     ",
"          #+++++$     ",
"        %++++++++@&   ",
"       *=+++++++++-   ",
"       ++@++++++@+;   ",
"     >+@+++@++++++@+  ",
"     $+++@++++++++++  ",
"     >+++++,   '++++  ",
"    )!++++~{   ]++++  ",
"   &++++++     ^+@+@  ",
"   &++++++     /++@+  ",
"   &+@+++++++% '@+++  ",
"  +++@++@+@+@+++++++  ",
"  ++(++++++@++++++++  ",
"  @+++++@+++++++++++  ",
"  ++@++++++++++++@++  ",
"  ++++++_   ++++++++  ",
"   :++,      &++++++  ",
"   &@+<      [++++++  ",
"               /++~   ",
"               '(+;   ",
"                      ",
"                      ",
"                      ",
"                      ",
"                      "};
