/* XPM */
static char * C:\Users\mathi\Documents\b_xpm[] = {
"22 30 21 1",
" 	c None",
".	c #050505",
"+	c #000000",
"@	c #3F3F3F",
"#	c #363636",
"$	c #525252",
"%	c #545454",
"&	c #080808",
"*	c #A3A3A3",
"=	c #2F2F2F",
"-	c #434343",
";	c #141414",
">	c #787878",
",	c #9E9E9E",
"'	c #292929",
")	c #121212",
"!	c #4A4A4A",
"~	c #242424",
"{	c #606060",
"]	c #4E4E4E",
"^	c #7C7C7C",
"                      ",
"                      ",
"                      ",
"                      ",
"       .+++++@        ",
"       ++++++#        ",
"     $+++++++++++     ",
"     %&+.++++++++*    ",
"     $+++.++++++++=   ",
"    -;+.++> &++++.=   ",
"    ++++++, ;+++++'   ",
"    .+++@   )++++.'   ",
"    +++&!   )+++.+=   ",
"   *+++++++++++++     ",
"  @~.+++++++++.++#{   ",
"  ..++++++++.+++++'   ",
"  ++.+++]   ).++.+++> ",
"  +++.++!   )+++++.+> ",
"  ++++++$   )++++.++^ ",
"  ++++++#   &.+.++++^ ",
"  ++++++++++.+++++++> ",
"  ++++++++++++++++++^ ",
"  +++.++++++.+++++++  ",
"    +++&+++++++++     ",
"    .++++++++.+.+     ",
"                      ",
"                      ",
"                      ",
"                      ",
"                      "};
