/* XPM */
static char * C:\Users\mathi\Documents\c_xpm[] = {
"22 30 20 1",
" 	c None",
".	c #000000",
"+	c #050505",
"@	c #4A4A4A",
"#	c #959595",
"$	c #232323",
"%	c #787878",
"&	c #4E4E4E",
"*	c #323232",
"=	c #606060",
"-	c #383838",
";	c #848484",
">	c #363636",
",	c #080808",
"'	c #0D0D0D",
")	c #2F2F2F",
"!	c #3F3F3F",
"~	c #474747",
"{	c #434343",
"]	c #5C5C5C",
"                      ",
"                      ",
"                      ",
"                      ",
"          ..+...@     ",
"          ......@     ",
"      #..+........    ",
"     .............    ",
"     ...+........+    ",
"     ...........$%    ",
"     .......+...&     ",
"   *.+.+.+.=          ",
"   *......-;          ",
"   >.....,            ",
"   -.....'            ",
"   *.....'            ",
"   )......!    ~!{    ",
"   >....+..]   ..+    ",
"     .+..+.+.......+  ",
"     .....+..++.....  ",
"     .+........+...+  ",
"       .......+..+..  ",
"       ...........+.  ",
"          ......>     ",
"          ..+...&     ",
"                      ",
"                      ",
"                      ",
"                      ",
"                      "};
