/* XPM */
static char * C:\Users\mathi\Desktop\d_xpm[] = {
"22 30 15 1",
" 	c None",
".	c #000000",
"+	c #050505",
"@	c #545454",
"#	c #525252",
"$	c #080808",
"%	c #434343",
"&	c #5C5C5C",
"*	c #595959",
"=	c #232323",
"-	c #1C1C1C",
";	c #363636",
">	c #292929",
",	c #2F2F2F",
"'	c #121212",
"                      ",
"                      ",
"                      ",
"                      ",
"    ........+         ",
"   @.........#        ",
"  ...+..........$     ",
"  .............+.%    ",
"  ................&   ",
"  ...........+.+..&   ",
"  +.+...+.........*   ",
"  ......    .......$  ",
"  .....+    %=+...+.  ",
"  ......      ..+..+  ",
"  ...+..      ......  ",
"  ....+.      ......  ",
"  ...+.+-;   >.+....  ",
"  .......$  ........  ",
"    ..+.....+.......  ",
"    ..........+.....  ",
"    ......+.....+...  ",
"    ..............,   ",
"    ..............*   ",
"    ............'     ",
"    ...........++     ",
"                      ",
"                      ",
"                      ",
"                      ",
"                      "};
