/* XPM */
static char * C:\Users\mathi\Desktop\e_xpm[] = {
"22 30 12 1",
" 	c None",
".	c #141414",
"+	c #000000",
"@	c #121212",
"#	c #050505",
"$	c #181818",
"%	c #434343",
"&	c #080808",
"*	c #2F2F2F",
"=	c #363636",
"-	c #595959",
";	c #3F3F3F",
"                      ",
"                      ",
"                      ",
"                      ",
"        .+++++++++    ",
"        @+++++++++    ",
"       +++++#++++++$  ",
"       +++#++#++++#$  ",
"       ++++++++++#+$  ",
"     %@+#+++#+++++    ",
"     +++++++++#+++    ",
"     #+++++           ",
"     ++##+&           ",
"     +#+++++++++      ",
"     +#+++#+++++      ",
"   +++++++++++++      ",
"   ++++++#++++.       ",
"   #++++++++++*       ",
"   ++#+#+*            ",
"   #+++++=            ",
"   ++#+#+#++++&+++    ",
"   #++++++++++++++    ",
"   ++#+++++++#++++    ",
"    -++&++++++&+;     ",
"     +++++++#+++      ",
"                      ",
"                      ",
"                      ",
"                      ",
"                      "};
