/* XPM */
static char * C:\Users\mathi\Desktop\f_xpm[] = {
"22 30 11 1",
" 	c None",
".	c #4A4A4A",
"+	c #000000",
"@	c #323232",
"#	c #707070",
"$	c #050505",
"%	c #292929",
"&	c #080808",
"*	c #474747",
"=	c #595959",
"-	c #5C5C5C",
"                      ",
"                      ",
"                      ",
"                      ",
"       .+++++++++     ",
"       @+++++++++#    ",
"      +$+++++++++++   ",
"      ++++++++$++++   ",
"      ++++++++++$++   ",
"      $++++++$+$+     ",
"      +++++++++++     ",
"    +++++++$          ",
"    ++$++$++          ",
"    ++++$++++++++     ",
"    +++++++++++++     ",
"    +++++++++++++     ",
"    +++$+$+++++%      ",
"    +++++++$+&+*      ",
"    ++++++.           ",
"    $+++++=           ",
"    +$$+++=           ",
"    +++$++=           ",
"    ++++++-           ",
"      ++$             ",
"      +$&             ",
"                      ",
"                      ",
"                      ",
"                      ",
"                      "};
