/* XPM */
static char * C:\Users\mathi\Desktop\g_xpm[] = {
"22 30 16 1",
" 	c None",
".	c #000000",
"+	c #050505",
"@	c #6F6F6F",
"#	c #080808",
"$	c #383838",
"%	c #1C1C1C",
"&	c #0D0D0D",
"*	c #595959",
"=	c #121212",
"-	c #141414",
";	c #292929",
">	c #363636",
",	c #242424",
"'	c #2F2F2F",
")	c #4E4E4E",
"                      ",
"                      ",
"                      ",
"                      ",
"         ..+.+...     ",
"         ........     ",
"     @............#   ",
"    $%...+........#   ",
"    .......+......&   ",
"    ........+...+*    ",
"    ..+....+.....     ",
"  =.......            ",
"  -#....+%            ",
"  =.....;   >.....#   ",
"  -.+..+;   ,....+#   ",
"  -.....'  .....+...  ",
"  =.+...'  +........  ",
"  -.....;  ........+  ",
"  =+......    ...+..  ",
"  )'......    .....   ",
"    ...+.+.+..+...#   ",
"    ..............#   ",
"    ..............=   ",
"       %.......       ",
"       ,.......       ",
"                      ",
"                      ",
"                      ",
"                      ",
"                      "};
