/* XPM */
static char * C:\Users\mathi\Desktop\h_xpm[] = {
"22 30 12 1",
" 	c None",
".	c #050505",
"+	c #000000",
"@	c #242424",
"#	c #181818",
"$	c #3F3F3F",
"%	c #0D0D0D",
"&	c #666666",
"*	c #1C1C1C",
"=	c #141414",
"-	c #232323",
";	c #292929",
"                      ",
"                      ",
"                      ",
"                      ",
"   .++       @++      ",
"   +++       #+.      ",
"  ++++++    ++++      ",
"  ++.+++    ++.+$     ",
"  +.++++    ++++++    ",
"  +++..+    +%+++.    ",
"  ++++++    +++++.    ",
"  +.+++++.++++++++    ",
"  .+++++++++++++.+    ",
"  +++.++++++++++++    ",
"  ++++++++++++++++&   ",
"  .++++++++.++++.++*  ",
"  +.++++.++++++++++=  ",
"  ++.+++++++.++.++.-  ",
"  +.++++     -+++++=  ",
"  ++.+++     ;+++.+*  ",
"  +++++.     *.+.++#  ",
"  ++++++     @+++++#  ",
"  ++++++     @.++++*  ",
"   +.+         ..+    ",
"   .++         +++    ",
"                      ",
"                      ",
"                      ",
"                      ",
"                      "};
