/* XPM */
static char * C:\Users\mathi\Desktop\i_xpm[] = {
"22 30 6 1",
" 	c None",
".	c #474747",
"+	c #000000",
"@	c #050505",
"#	c #323232",
"$	c #434343",
"                      ",
"                      ",
"                      ",
"                      ",
"        .+@           ",
"        #+@$          ",
"       ++++++         ",
"       ++++++         ",
"       ++++++         ",
"       ++++++         ",
"       ++++++         ",
"       ++++++         ",
"       ++++++         ",
"       ++++++         ",
"       +++@++         ",
"       +@++++         ",
"       +++++@++       ",
"       @++@++++       ",
"       ++@++@++       ",
"       ++@++++@       ",
"       @+++++++       ",
"       ++++++@+       ",
"       ++++++++       ",
"        $++@+         ",
"        $+++@         ",
"                      ",
"                      ",
"                      ",
"                      ",
"                      "};
