/* XPM */
static char * C:\Users\mathi\Desktop\j_xpm[] = {
"22 30 16 1",
" 	c None",
".	c #000000",
"+	c #242424",
"@	c #050505",
"#	c #292929",
"$	c #121212",
"%	c #141414",
"&	c #0D0D0D",
"*	c #434343",
"=	c #1C1C1C",
"-	c #3F3F3F",
";	c #383838",
">	c #525252",
",	c #080808",
"'	c #606060",
")	c #2F2F2F",
"                      ",
"                      ",
"                      ",
"                      ",
"         ....+        ",
"         @...#        ",
"       $....@#        ",
"       %.@.@.$        ",
"       &.......       ",
"         .@....       ",
"         ......       ",
"         ........     ",
"         *=.....@     ",
"           @.....     ",
"           ...@..     ",
"           ......     ",
"      -*   ......     ",
"      ..;  ......     ",
"    .@.......@...     ",
"    ....@.@......     ",
"    ..@..@.......     ",
"    ......@....-      ",
"    ....@......       ",
"     >.....,.+        ",
"     '.......)        ",
"                      ",
"                      ",
"                      ",
"                      ",
"                      "};
