/* XPM */
static char * C:\Users\mathi\Desktop\k_xpm[] = {
"22 30 10 1",
" 	c None",
".	c #000000",
"+	c #0D0D0D",
"@	c #080808",
"#	c #050505",
"$	c #383838",
"%	c #3F3F3F",
"&	c #525252",
"*	c #292929",
"=	c #474747",
"                      ",
"                      ",
"                      ",
"                      ",
"     ..+     ...@.    ",
"     ..@     .....    ",
"   ......    ....#.$  ",
"   ..#...    #.....%  ",
"   .#....  &.....#.$  ",
"   ....#.  &......    ",
"   .#....  &..#...    ",
"   .#.#..#........    ",
"   .....#...##..*%    ",
"   .#...........      ",
"    =#..........      ",
"     .....#.....##    ",
"     .............    ",
"     .#......#....    ",
"     ..............   ",
"     .#.....#.#.#..   ",
"     #...#.  #.....   ",
"     .#...#  .##...   ",
"     ......  ......   ",
"      $..=     ...    ",
"      %..      .@#    ",
"                      ",
"                      ",
"                      ",
"                      ",
"                      "};
