/* XPM */
static char * C:\Users\mathi\Desktop\l_xpm[] = {
"22 30 10 1",
" 	c None",
".	c #000000",
"+	c #1C1C1C",
"@	c #121212",
"#	c #050505",
"$	c #363636",
"%	c #242424",
"&	c #232323",
"*	c #181818",
"=	c #080808",
"                      ",
"                      ",
"                      ",
"                      ",
"          ..+         ",
"          ..@         ",
"        ......        ",
"        ..#...        ",
"        ......        ",
"       $....#.        ",
"      %.......        ",
"      &.....*         ",
"      %...#.+         ",
"      &#....*         ",
"      *....           ",
"     .....#           ",
"     #..=..           ",
"     .#....           ",
"     .........        ",
"     ....#....        ",
"     ........#.#      ",
"     .....#.....      ",
"     ...........      ",
"      @.....#.$       ",
"      &......#        ",
"                      ",
"                      ",
"                      ",
"                      ",
"                      "};
