/* XPM */
static char * C:\Users\mathi\Desktop\m_xpm[] = {
"22 30 15 1",
" 	c None",
".	c #000000",
"+	c #050505",
"@	c #2F2F2F",
"#	c #292929",
"$	c #323232",
"%	c #232323",
"&	c #121212",
"*	c #181818",
"=	c #434343",
"-	c #141414",
";	c #242424",
">	c #1C1C1C",
",	c #383838",
"'	c #474747",
"                      ",
"                      ",
"                      ",
"                      ",
"    .+..      ..@     ",
"    ....      ..#     ",
"  ....+...  ......    ",
"  .+....+. $...+..    ",
"  ............+...    ",
"  ......+.......+.%   ",
"  ...+.......+......  ",
"  ....+...+.........  ",
"  ....& *...........  ",
"......   .+.........  ",
"......    ...%=+....  ",
"......    -..  %....  ",
"......         ;.+..$ ",
"..+...         @....+-",
"........       >+....%",
"......+.       ;.....*",
"..+.+..+       #..+.+-",
"........       %...+.%",
"........       ;.....>",
"  ....,          +..  ",
"  ..+.'          ...  ",
"                      ",
"                      ",
"                      ",
"                      ",
"                      "};
