/* XPM */
static char * C:\Users\mathi\Desktop\n_xpm[] = {
"22 30 18 1",
" 	c None",
".	c #000000",
"+	c #050505",
"@	c #525252",
"#	c #141414",
"$	c #2F2F2F",
"%	c #474747",
"&	c #4A4A4A",
"*	c #292929",
"=	c #4E4E4E",
"-	c #080808",
";	c #7C7C7C",
">	c #242424",
",	c #323232",
"'	c #434343",
")	c #595959",
"!	c #606060",
"~	c #8D8D8D",
"                      ",
"                      ",
"                      ",
"                      ",
"    .....       ..+   ",
"    .....       ...   ",
"   +...+..@   #.....$ ",
"   .....+.%   #.....$ ",
"   +......&   #.....$ ",
"   .......*   #.....$ ",
"   ........+  #.....$ ",
"   +........  #.....$ ",
"   .........  #.....$ ",
" ...........  #.....$ ",
" ....+.  +..= -.....* ",
" ......  ..........+* ",
" .+..+.  .....+..+.   ",
" ..+...  ..........   ",
" .....+  .....+....   ",
" ...++.  .+..+.....   ",
" ..-..+    +...-...   ",
" ......    .......+   ",
" ..+..+    ........   ",
" ;>..,      ,....'    ",
"  '..)      !....~    ",
"                      ",
"                      ",
"                      ",
"                      ",
"                      "};
