/* XPM */
static char * C:\Users\mathi\Desktop\o_xpm[] = {
"22 30 16 1",
" 	c None",
".	c #434343",
"+	c #000000",
"@	c #050505",
"#	c #363636",
"$	c #4A4A4A",
"%	c #383838",
"&	c #141414",
"*	c #2F2F2F",
"=	c #323232",
"-	c #545454",
";	c #525252",
">	c #242424",
",	c #3F3F3F",
"'	c #474747",
")	c #232323",
"                      ",
"                      ",
"                      ",
"                      ",
"        .+++@         ",
"        #++++         ",
"     +++++++++++$     ",
"    %+++++++++++&#    ",
"   *@+++@+++++++++    ",
"   #+@++    ++++++    ",
"   =++++    ++++++    ",
"  ++@+       -++@+@+  ",
"  @+++       -+++@++  ",
"  ++++       ;++++++  ",
"  ++++#      >++++++  ",
"  ++++++    ++++++@+  ",
"  @+++++=%,*++@+++++  ",
"  @++++++@++++++++++  ",
"  +@+++++++@+++++@++  ",
"  '@++++++++++@+@+),  ",
"   %++++++++@+++++    ",
"   =++++++++++++++    ",
"   =++++++++++@+++    ",
"       ++++++++       ",
"       ++++@++@       ",
"                      ",
"                      ",
"                      ",
"                      ",
"                      "};
