/* XPM */
static char * C:\Users\mathi\Desktop\p_xpm[] = {
"22 30 23 1",
" 	c None",
".	c #000000",
"+	c #010101",
"@	c #030303",
"#	c #131313",
"$	c #020202",
"%	c #171717",
"&	c #050505",
"*	c #595959",
"=	c #070707",
"-	c #060606",
";	c #040404",
">	c #080808",
",	c #1B1B1B",
"'	c #262626",
")	c #2B2B2B",
"!	c #323232",
"~	c #0C0C0C",
"{	c #2A2A2A",
"]	c #222222",
"^	c #0F0F0F",
"/	c #151515",
"(	c #252525",
"                      ",
"                      ",
"                      ",
"                      ",
"     .+..@.@#         ",
"     .$..+.@%         ",
"   +...+....$@.@      ",
"   ......+$$..&.*     ",
"   .@=.-+.+.;$.&+>    ",
"   @..@,   '.$..+>    ",
"   @.@$)   !@....~    ",
"   ....{     ++&..+   ",
"   +.-.]     ...;..   ",
"   .@.+..    ..@.@.   ",
"   ..$..@    .@..+.   ",
"   +.&.@$+.=...$...   ",
"   .+.$...-.@.;..>    ",
"   ..$+....&...+.^    ",
"     ..$$+..+&+.      ",
"     .$..$>..$..      ",
"     .+&..$           ",
"     $$.$$.           ",
"     .$...$           ",
"      /+$             ",
"      (..             ",
"                      ",
"                      ",
"                      ",
"                      ",
"                      "};
