/* XPM */
static char * C:\Users\mathi\Desktop\q_xpm[] = {
"22 30 14 1",
" 	c None",
".	c #000000",
"+	c #050505",
"@	c #181818",
"#	c #323232",
"$	c #2F2F2F",
"%	c #232323",
"&	c #080808",
"*	c #141414",
"=	c #1C1C1C",
"-	c #6A6A6A",
";	c #434343",
">	c #121212",
",	c #606060",
"                      ",
"                      ",
"                      ",
"                      ",
"          ...++.      ",
"          ......      ",
"       .........+.    ",
"      @.....+.....#   ",
"     ...+..........@  ",
"     .++.+.    ...+@  ",
"   +.......    ....@  ",
"   +.....$     ....%  ",
"   .+..&.      +...*  ",
"  ......    .  ....=  ",
"  ......    .  ....=  ",
"  ....+.  .....+...=  ",
"  +.....  ...+....    ",
"  ......  ....&...    ",
"  ..+..........+..+@  ",
"  ...+........+....=  ",
"  &..+...+........+.. ",
"   +...........+..+.. ",
"   ..........+....... ",
"      $....+.-  ;..>  ",
"      ,..+..+    ..=  ",
"                      ",
"                      ",
"                      ",
"                      ",
"                      "};
