/* XPM */
static char * C:\Users\mathi\Desktop\r_xpm[] = {
"22 30 18 1",
" 	c None",
".	c #000000",
"+	c #050505",
"@	c #080808",
"#	c #2F2F2F",
"$	c #242424",
"%	c #474747",
"&	c #363636",
"*	c #0D0D0D",
"=	c #323232",
"-	c #181818",
";	c #292929",
">	c #141414",
",	c #121212",
"'	c #4A4A4A",
")	c #434343",
"!	c #606060",
"~	c #545454",
"                      ",
"                      ",
"                      ",
"                      ",
"       ..+.+....      ",
"       .........      ",
"     ..+..........    ",
"     .+.....@..+..+#  ",
"     ....+.......+.$  ",
"   %$....&   *.+..+=  ",
"   ......    -.....;  ",
"   ...@.     >..+..#  ",
"   ....@     ,.....#  ",
"   ...+.    .+.....;  ",
"   ....+   '......    ",
"  .+.....+..+.....    ",
"  ....+.+.......%     ",
"  +...........+.      ",
"  ...+...+..+.....    ",
"  ...........+....    ",
"  ++...+  .....+...=  ",
"  ...+..  )-....+..;  ",
"  ...+..   !.......$  ",
"   ...~      +.+..    ",
"   .+.       -..+.    ",
"                      ",
"                      ",
"                      ",
"                      ",
"                      "};
