/* XPM */
static char * C:\Users\mathi\Desktop\s_xpm[] = {
"22 30 12 1",
" 	c None",
".	c #000000",
"+	c #050505",
"@	c #2F2F2F",
"#	c #323232",
"$	c #080808",
"%	c #363636",
"&	c #3F3F3F",
"*	c #434343",
"=	c #4A4A4A",
"-	c #383838",
";	c #242424",
"                      ",
"                      ",
"                      ",
"                      ",
"        ........      ",
"        ........      ",
"      ...........     ",
"      ...+....+..     ",
"    @+......+..+.     ",
"    #...+.$  ...      ",
"    %+....$  +..      ",
"    %.....+.          ",
"     &.+....*         ",
"      ....+.....      ",
"       =........      ",
"        .....+...     ",
"    -..    ........   ",
"    @..    ....+...   ",
"   .......+........   ",
"   ....++.....++.+.   ",
"   ..+...+..+......   ",
"   ....+.........-    ",
"   ..............     ",
"    ;+..+.....        ",
"    #........$        ",
"                      ",
"                      ",
"                      ",
"                      ",
"                      "};
