/* XPM */
static char * C:\Users\mathi\Desktop\t_xpm[] = {
"22 30 15 1",
" 	c None",
".	c #080808",
"+	c #000000",
"@	c #050505",
"#	c #0D0D0D",
"$	c #121212",
"%	c #595959",
"&	c #181818",
"*	c #242424",
"=	c #292929",
"-	c #1C1C1C",
";	c #232323",
">	c #6F6F6F",
",	c #6A6A6A",
"'	c #141414",
"                      ",
"                      ",
"                      ",
"                      ",
"       .++@++++@++    ",
"       +@+++++++++    ",
"   #@++@+++++++++++#  ",
"   $++@+@@+++++++++.  ",
"  +++++@+.+@++@++++.  ",
"  +++++++++++@++++%   ",
"  +++++++@++++++++    ",
"  +@+@+@+++++@&       ",
"  ++++++++++++&       ",
"   $++  *+++++&       ",
"        =+++.+&       ",
"        *++.++-       ",
"        *++++@&       ",
"        ;+++@+&       ",
"        ;+++@+++>     ",
"        ;+@+++++,     ",
"        *++@@+++,     ",
"          ++++++,     ",
"          ++++++>     ",
"          ++++'       ",
"          ++++&       ",
"                      ",
"                      ",
"                      ",
"                      ",
"                      "};
