/* XPM */
static char * C:\Users\mathi\Desktop\u_xpm[] = {
"22 30 18 1",
" 	c None",
".	c #525252",
"+	c #000000",
"@	c #050505",
"#	c #767676",
"$	c #2F2F2F",
"%	c #434343",
"&	c #1C1C1C",
"*	c #363636",
"=	c #4E4E4E",
"-	c #595959",
";	c #232323",
">	c #080808",
",	c #474747",
"'	c #121212",
")	c #3F3F3F",
"!	c #545454",
"~	c #787878",
"                      ",
"                      ",
"                      ",
"                      ",
"   .+++@              ",
"    ++++#             ",
"   .+++@++   #++$     ",
"   %++@+++   .++&     ",
"  @+++++++  @+++++    ",
"  ++++++++  +++++@    ",
"  ++++++@+  @+++@+    ",
"  +++@++    +@++++@+  ",
"  +@++++    ++++++++  ",
"  ++++++      ++++++  ",
"  ++++++      ++++++  ",
"  ++++++      @+++++  ",
"  ++++++*=  -;+>+@++  ",
"  ++@+++++  ++++@+++  ",
"  +++++@+++++@+++++@  ",
"  ,'++++++++@+++@+;)  ",
"   !+++++++++++@+@~   ",
"   .++++++++++++++    ",
"   .@+@+++++++++++    ",
"     @++@++@++++&     ",
"     +>+++++++++$     ",
"                      ",
"                      ",
"                      ",
"                      ",
"                      "};
