/* XPM */
static char * C:\Users\mathi\Desktop\v_xpm[] = {
"22 30 18 1",
" 	c None",
".	c #000000",
"+	c #5C5C5C",
"@	c #707070",
"#	c #434343",
"$	c #050505",
"%	c #666666",
"&	c #3F3F3F",
"*	c #121212",
"=	c #080808",
"-	c #474747",
";	c #232323",
">	c #292929",
",	c #383838",
"'	c #242424",
")	c #606060",
"!	c #4A4A4A",
"~	c #4E4E4E",
"                      ",
"                      ",
"                      ",
"                      ",
"    ....+             ",
"   @....#             ",
"  ......$.     %..&   ",
"  ....$...    #*..=-  ",
"  ...$....    ....$.  ",
"  $.......    ....$.  ",
"  .$..$...    ..$...  ",
"  ........  ........  ",
"  #;....$.  $......$  ",
"    ......  ........  ",
"    ......  $.....>   ",
"    $....$  .....$,   ",
"    ......'#......&   ",
"    ...$..........&   ",
"    $........$.=.     ",
"    &*...$..=....     ",
"     #...........     ",
"     #.........)      ",
"     #.........       ",
"       .....$!        ",
"       ....$.~        ",
"                      ",
"                      ",
"                      ",
"                      ",
"                      "};
