/* XPM */
static char * C:\Users\mathi\Desktop\w_xpm[] = {
"22 30 18 1",
" 	c None",
".	c #080808",
"+	c #000000",
"@	c #525252",
"#	c #050505",
"$	c #474747",
"%	c #232323",
"&	c #181818",
"*	c #666666",
"=	c #121212",
"-	c #7C7C7C",
";	c #242424",
">	c #4E4E4E",
",	c #3F3F3F",
"'	c #1C1C1C",
")	c #363636",
"!	c #595959",
"~	c #323232",
"                      ",
"                      ",
"                      ",
"                      ",
"   .++          @#+@  ",
"   +++          @+#$  ",
" %+++++&       ++++++ ",
" %+++++&       ++++++ ",
" %+++++&       ++++++ ",
" %+++++&       ++++++ ",
" %+++++&       ++++++ ",
" %+++++&       #+++++ ",
" %+++++&       ++++++ ",
" %+++++&  #+.  +#+#++ ",
"  *++++=-$++#-@++++++ ",
"   ++++++++++++++++.+ ",
"   ++##+++++#++#+#+;  ",
"   +#++++++++#+++++>  ",
"   +#+.+++++++.++++>  ",
"   ,'+++++++.++++++   ",
"     ++#++#++++#+#+   ",
"     +++++++++++++    ",
"     +++++++++++++    ",
"      &++)   +++!-    ",
"      ~++    +++      ",
"                      ",
"                      ",
"                      ",
"                      ",
"                      "};
