/* XPM */
static char * C:\Users\mathi\Desktop\x_xpm[] = {
"22 30 26 1",
" 	c None",
".	c #000000",
"+	c #121212",
"@	c #050505",
"#	c #292929",
"$	c #363636",
"%	c #0D0D0D",
"&	c #181818",
"*	c #787878",
"=	c #141414",
"-	c #828282",
";	c #606060",
">	c #080808",
",	c #5C5C5C",
"'	c #767676",
")	c #6A6A6A",
"!	c #595959",
"~	c #4E4E4E",
"{	c #8B8B8B",
"]	c #7C7C7C",
"^	c #666666",
"/	c #242424",
"(	c #2F2F2F",
"_	c #323232",
":	c #6F6F6F",
"<	c #919191",
"                      ",
"                      ",
"                      ",
"                      ",
"    ...       ...     ",
"    ...       ...     ",
"  +.@...#   $.....%   ",
"  &..@.@+*  &.....%   ",
"  =....@...@......@   ",
"  -;..@.....@.>..,    ",
"    ...@.@.....@.     ",
"     '.........)      ",
"     !.........~      ",
"    .............     ",
"  {;.@...........;]   ",
"  +.@......@.@.@..%   ",
"  =...@..@.......@%   ",
"  %.......@.......>   ",
"^......./   (..@...@! ",
",......@(   _>......, ",
";..@...       ......! ",
")......       ......! ",
"^.@..@.       ......! ",
"  >..;         :..@   ",
"  +..<          ..%   ",
"                      ",
"                      ",
"                      ",
"                      ",
"                      "};
