/* XPM */
static char * C:\Users\mathi\Desktop\y_xpm[] = {
"22 30 20 1",
" 	c None",
".	c #767676",
"+	c #000000",
"@	c #2F2F2F",
"#	c #707070",
"$	c #292929",
"%	c #545454",
"&	c #050505",
"*	c #232323",
"=	c #383838",
"-	c #4E4E4E",
";	c #525252",
">	c #5C5C5C",
",	c #434343",
"'	c #4A4A4A",
")	c #A0A0A0",
"!	c #666666",
"~	c #242424",
"{	c #3F3F3F",
"]	c #6A6A6A",
"                      ",
"                      ",
"                      ",
"                      ",
"             .++@     ",
"             #++$     ",
"   %++&+    +&++&+    ",
"   *++++%   ++++++    ",
"  ++++&+++  ++++&+    ",
"  ++++++++=@++++++    ",
"  +++++++&+++++++&    ",
"   -&++&++++&++&++    ",
"   ;+&++++++++++++    ",
"     +++&+++++++$     ",
"     >,&++++++++$     ",
"       +++++++&+@     ",
"        '+++&++)      ",
"        !&+++++       ",
"       ++++++++       ",
"       &+++++~{       ",
"       +++&++         ",
"       ++++++         ",
"       &+++&+         ",
"        '++$          ",
"        ]++{          ",
"                      ",
"                      ",
"                      ",
"                      ",
"                      "};
