/* XPM */
static char * C:\Users\mathi\Desktop\z_xpm[] = {
"22 30 24 1",
" 	c None",
".	c #000000",
"+	c #080808",
"@	c #050505",
"#	c #323232",
"$	c #4A4A4A",
"%	c #363636",
"&	c #4E4E4E",
"*	c #9E9E9E",
"=	c #707070",
"-	c #474747",
";	c #434343",
">	c #919191",
",	c #545454",
"'	c #7C7C7C",
")	c #666666",
"!	c #5C5C5C",
"~	c #2F2F2F",
"{	c #828282",
"]	c #848484",
"^	c #9A9A9A",
"/	c #1C1C1C",
"(	c #232323",
"_	c #959595",
"                      ",
"                      ",
"                      ",
"                      ",
"      .+......        ",
"      ......@.        ",
"    #.@..........$    ",
"    %............$    ",
"    #.........@..&    ",
"    *=.....@.....-    ",
"      .@....+..@@$    ",
"         ;......      ",
"         %......      ",
"       >..@.....      ",
"       -@.....,'      ",
"      .@.....@        ",
"    )%...@..-         ",
"    %.......!         ",
"    ~.....@......$    ",
"  { %.......@...@&    ",
"  ]....+...........   ",
"  ].@.....@........^  ",
"   ................*  ",
"    /............({_  ",
"    #.@...@......&    ",
"                      ",
"                      ",
"                      ",
"                      ",
"                      "};
