/* XPM */
static char * C:\Users\mathi\Desktop\mana_empty_xpm[] = {
"182 5 3 1",
" 	c #171228",
".	c #1A195B",
"+	c #110C31",
"                                                                                                                                                                                      ",
" .................................................................................................................................................................................... ",
" .++++++++++++++++++++++++++++++++++++++++++++++++++++++++++++++++++++++++++++++++++++++++++++++++++++++++++++++++++++++++++++++++++++++++++++++++++++++++++++++++++++++++++++++++++. ",
" .................................................................................................................................................................................... ",
"                                                                                                                                                                                      "};
