/* XPM */
static char * C:\Users\mathi\Desktop\mana_xpm[] = {
"182 5 3 1",
" 	c #171228",
".	c #2A92C0",
"+	c #194A6D",
"                                                                                                                                                                                      ",
" .................................................................................................................................................................................... ",
" .................................................................................................................................................................................... ",
" ++++++++++++++++++++++++++++++++++++++++++++++++++++++++++++++++++++++++++++++++++++++++++++++++++++++++++++++++++++++++++++++++++++++++++++++++++++++++++++++++++++++++++++++++++++ ",
"                                                                                                                                                                                      "};
